# xmcd
#
# Track frame offsets:
#	150
#	27005
#	55775
#	72795
#	106553
#	131484
#	158943
#	179586
#	205548
#
# Disc length: 3099 seconds
#
# Revision: 1
# Processed by: cddbd v1.5.2PL0 Copyright (c) Steve Scherf et al.
# Submitted via: audiograbber 1.83.01
#
DISCID=6c0c1909
DTITLE=Lucy Kobusingye - Gather All Your Children
DYEAR=1900
DGENRE=Gospel
TTITLE0=Gather All Your Children
TTITLE1=He Bridged the Gap
TTITLE2=The Keeper of My Soul
TTITLE3=Don't Let the Sun Go Down
TTITLE4=Come and Feed Us
TTITLE5=Thank You for Loving Me
TTITLE6=From the Housetops
TTITLE7=He Will Be There
TTITLE8=Lord I Want to Know You
EXTD=
EXTT0=
EXTT1=
EXTT2=
EXTT3=
EXTT4=
EXTT5=
EXTT6=
EXTT7=
EXTT8=
PLAYORDER=
